<svg xmlns="http://www.w3.org/2000/svg" xmlns:xlink="http://www.w3.org/1999/xlink" width="202" height="46" viewBox="0 0 202 46">
    <defs>
        <path id="z9rh1knvia" d="M38.673 6.857L46.578 35.85 0.1 44.007 0.1 0.072z"/>
        <path id="h6uo55kjnc" d="M0.048 0.075L12.571 0.075 12.571 15.679 0.048 15.679z"/>
    </defs>
    <g fill="none" fill-rule="evenodd">
        <path fill="#E42328" fill-rule="nonzero" d="M33.688 35.95l8.187-.397-6.532-25.115-9.684-.647-.083-.272c-.333-1.087-.668-2.175-.951-3.276-.2-.776-.189-1.57.05-2.35.319-1.046.975-1.838 1.858-2.444C28.353.199 30.374-.15 32.53.189c1.845.289 3.48 1.048 4.915 2.245 1.204 1.005 1.963 2.28 2.35 3.793.29 1.143.6 2.282.901 3.422.427 1.614.858 3.228 1.282 4.843.43 1.635.864 3.27 1.281 4.908.51 2.003 1.007 4.01 1.505 6.016.36 1.449.72 2.897 1.064 4.35.337 1.422.654 2.849.98 4.273.1.438.19.878.3 1.313.107.42.38.593.787.53.335-.053.482-.2.522-.562.055-.508.094-1.019.142-1.528.134-1.424.27-2.847.402-4.271.16-1.736.317-3.472.476-5.208.201-2.194.404-4.387.604-6.581.155-1.705.303-3.411.464-5.116.123-1.3.28-2.595.68-3.847.354-1.114.865-2.144 1.604-3.059 1.034-1.278 2.355-2.127 3.925-2.546 2.966-.792 5.856-.53 8.61.844 1.917.955 3.279 2.48 4.239 4.377.627 1.239.998 2.564 1.27 3.918.607 3.019 1.207 6.039 1.804 9.06.654 3.306 1.3 6.614 1.95 9.922.045.225.083.452.14.674.065.263.301.413.566.377.161-.022.272-.148.305-.387.04-.279.066-.56.087-.84.119-1.583.23-3.166.352-4.748.127-1.655.257-3.31.396-4.964.112-1.32.234-2.641.361-3.96.152-1.58.316-3.158.472-4.737.147-1.485.293-2.97.434-4.457.054-.573.147-1.137.343-1.681.658-1.825 2.458-2.579 3.965-2.417.715.076 1.433.124 2.15.183l2.212.179c.945.075 1.891.145 2.836.222.988.081 1.975.162 2.961.255.623.06 1.252.095 1.863.22 3.498.715 5.912 2.75 7.245 6.065.401.998.628 2.043.79 3.107.188 1.227.177 2.46.117 3.688-.08 1.594-.343 3.16-.907 4.669-1.036 2.77-3.007 4.522-5.785 5.418-.698.225-1.42.33-2.143.424-1.127.148-2.255.28-3.383.42-.29.035-.58.07-.87.103-.616.07-1.127-.133-1.54-.593-.38-.42-.615-.923-.748-1.463-.298-1.216-.217-2.406.36-3.533.152-.294.346-.572.554-.83.39-.483.898-.773 1.53-.813.936-.06 1.873-.107 2.81-.176.55-.041 1.102-.087 1.646-.177 2.811-.468 3.347-8.412-.366-8.692-.496-.056-1-.053-1.5-.062-2.013-.035-4.026-.065-6.038-.096-.113-.002-.226 0-.368 0-.089.81-.176 1.577-.256 2.344-.125 1.183-.245 2.367-.366 3.55-.18 1.744-.354 3.489-.537 5.232-.218 2.076-.444 4.15-.664 6.226-.107 1.006-.18 2.017-.388 3.01-.377 1.801-1.154 3.39-2.484 4.684-1.116 1.086-2.45 1.79-3.932 2.233-1.1.329-2.225.45-3.37.379-2.26-.14-4.04-1.137-5.32-3.014-.597-.874-.978-1.846-1.224-2.865-.496-2.06-.968-4.125-1.44-6.19-.472-2.065-.934-4.134-1.398-6.2l-1.536-6.845L62 12.885c-.018-.081-.038-.163-.067-.24-.113-.308-.299-.432-.59-.403-.26.027-.417.188-.463.508-.042.3-.07.602-.1.903-.19 1.88-.38 3.76-.565 5.64-.162 1.642-.314 3.284-.477 4.926-.199 2.016-.404 4.03-.606 6.045-.152 1.517-.288 3.035-.456 4.55-.16 1.438-.475 2.838-1.113 4.153-.919 1.89-2.333 3.312-4.103 4.404-1.826 1.126-3.827 1.73-5.937 2.018-1.223.167-2.449.241-3.68.131-2.238-.2-4.306-.866-6.099-2.264-1.2-.936-2.085-2.12-2.717-3.502-.562-1.227-.957-2.513-1.339-3.804z"/>
        <g transform="translate(0 .786)">
            <mask id="8x6a8963cb" fill="#fff">
                <use xlink:href="#z9rh1knvia"/>
            </mask>
            <path fill="#E42328" fill-rule="nonzero" d="M18.047 21.908L5.643 32.789V11.287l12.404 10.62zM9.051 9.6l29.25 1.996-13.277 11.917L9.05 9.601zM20.63 24.12l3.399 2.91c.288.247.65.377 1.018.366.363-.01.717-.154.995-.408l3.304-3.014 9.244 8.55-29.647 2.022L20.63 24.12zm20.24-10.658v16.95l-9.153-8.6 9.153-8.35zm1.467-4.772L3.892 5.622c-.496-.04-.962.12-1.317.446-.357.329-.553.783-.553 1.279v29.446c0 .497.196.95.553 1.279.317.292.732.452 1.17.452.05 0 .098-.002.148-.006l38.445-3.068c.758-.06 1.353-.782 1.353-1.642V10.332c0-.86-.595-1.581-1.353-1.642z" mask="url(#8x6a8963cb)"/>
        </g>
        <g>
            <path fill="#020203" fill-rule="nonzero" d="M10.614 10.08c0-2.343-.63-3.604-3.748-3.604-3.088 0-3.808 1.261-3.808 3.603v2.583c0 2.341.72 3.573 3.808 3.573s3.748-1.232 3.748-3.573v-2.583zM0 9.99c0-4.384 2.668-6.396 6.836-6.396 4.588 0 6.866 2.012 6.866 6.395v2.613c0 4.083-1.919 6.545-6.236 6.545-2.309 0-3.658-.75-4.408-1.952v7.627H0V9.989zM27.019 10.104c0-2.35-.688-3.617-3.74-3.617-3.081 0-3.8 1.266-3.8 3.617v2.592c0 2.35.719 3.587 3.8 3.587 3.052 0 3.74-1.236 3.74-3.587v-2.592zm-10.621 2.592v-2.592c0-4.129 2.184-6.51 6.881-6.51 4.847 0 6.821 2.29 6.821 6.51v2.592c0 4.099-2.154 6.51-6.821 6.51-4.876 0-6.881-2.29-6.881-6.51zM32.684 9.923c0-3.797 2.198-6.329 6.957-6.329 1.536 0 2.65.331 3.554.723v2.924c-.873-.362-1.928-.754-3.494-.754-2.951 0-3.915 1.025-3.915 3.466v2.833c0 2.652 1.235 3.496 4.126 3.496 1.265 0 2.44-.24 3.554-.663v2.894c-1.144.422-2.32.693-3.705.693-4.879 0-7.077-2.14-7.077-6.33V9.924zM46.106 3.931h8.13c2.62 0 3.494.904 3.494 3.102 0 1.446-.301 2.38-2.319 3.614l-6.685 4.066c-.452.271-.632.512-.632.813 0 .392.24.542.964.542h8.672v2.801h-9.004c-2.319 0-3.463-.934-3.463-3.072 0-1.235.392-2.44 2.289-3.614l6.625-4.066c.511-.331.722-.572.722-.873 0-.361-.21-.512-.963-.512h-7.83V3.93zM59.19 4.383l2.613-.48.51-3.903h2.552v3.903h5.465v2.882h-5.465V13.6c0 1.981.931 2.612 2.342 2.612 1.352 0 2.793-.27 3.664-.63v2.881c-.99.42-2.252.63-3.664.63-3.122 0-5.404-1.35-5.404-5.523V6.785H59.19V4.383z" transform="translate(115.685 7.75)"/>
            <g transform="translate(115.685 7.75) translate(72.556 3.482)">
                <mask id="nue1bfyced" fill="#fff">
                    <use xlink:href="#h6uo55kjnc"/>
                </mask>
                <path fill="#020203" fill-rule="nonzero" d="M9.5 8.841H6.19c-2.048 0-3.041.603-3.041 2.139 0 1.777 1.415 2.079 2.95 2.079 1.957 0 3.401-.302 3.401-2.35V8.841zm3.071 2.019c0 3.313-1.957 4.82-6.412 4.82-3.913 0-6.111-1.447-6.111-4.64 0-3.374 2.378-4.548 6.141-4.548H9.5V5.015c0-1.867-1.414-2.289-3.552-2.289-1.776 0-3.31.211-4.274.573V.587C2.757.226 4.142.075 5.768.075c4.064 0 6.803 1.175 6.803 4.94v5.845z" mask="url(#nue1bfyced)"/>
            </g>
        </g>
    </g>
</svg>
